<svg xmlns="http://www.w3.org/2000/svg" width="100%" height="100%" viewBox="0 0 1045.2 632" style="background:var(--bg)" font-family='"JetBrains Mono", "Liberation Mono", "Roboto Mono", "IBM Plex Mono", monospace'><style>svg{--bg:#ffffff;--group-stroke:#c8c8c8;--group-text:#6b6b6b;--node-fill:#f6f6f6;--node-stroke:#9a9a9a;--node-text:#1b1b1b;--edge:#7a7a7a;--edge-cross:#1b1b1b;--edge-text:#3c3c3c;--edge-on:#7a7a7a;--chip:#ffffff;--ok:#3f8f3f;--warn:#b58200;--bad:#c04040}@media(prefers-color-scheme:dark){svg{--bg:#141414;--group-stroke:#3a3a3a;--group-text:#8a8a8a;--node-fill:#1a1a1a;--node-stroke:#4a4a4a;--node-text:#e5e5e5;--edge:#9a9a9a;--edge-cross:#ffffff;--edge-text:#c0c0c0;--edge-on:#888888;--chip:#111111;--ok:#44aa44;--warn:#ddaa00;--bad:#cc5555}}</style><defs><marker id="arrow-edge" viewBox="0 0 10 10" refX="10" refY="5" markerWidth="8" markerHeight="8" orient="auto-start-reverse"><path d="M 0 0 L 10 5 L 0 10 Z" fill="var(--edge)"/></marker><marker id="arrow-edge-cross" viewBox="0 0 10 10" refX="10" refY="5" markerWidth="8" markerHeight="8" orient="auto-start-reverse"><path d="M 0 0 L 10 5 L 0 10 Z" fill="var(--edge-cross)"/></marker><marker id="arrow-bad" viewBox="0 0 10 10" refX="10" refY="5" markerWidth="8" markerHeight="8" orient="auto-start-reverse"><path d="M 0 0 L 10 5 L 0 10 Z" fill="var(--bad)"/></marker></defs><rect width="1045.2" height="632" fill="var(--bg)"/><g transform="translate(24,24)"><g><rect x="12" y="12" width="973.2" height="560" rx="6" fill="none" stroke="var(--ok)" stroke-width="1.5" stroke-dasharray="4 3"/><text x="24" y="31" fill="var(--group-text)" font-size="11">UnprocessedProofRequestStateGraph</text></g><path d="M 329.4 54.666666666666664 L 319.4 54.666666666666664 L 319.4 67.33333333333333 L 329.4 67.33333333333333" fill="none" stroke="var(--edge)" stroke-width="1.5" marker-end="url(#arrow-edge)"/><g><rect x="153.79999999999995" y="48" width="163.6" height="26" rx="3" fill="var(--chip)" opacity="0.9"/><text x="235.59999999999997" y="61" text-anchor="middle" fill="var(--edge-text)" font-size="10">ethFinalityPending</text><text x="235.59999999999997" y="72" text-anchor="middle" fill="var(--edge-on)" font-size="8" font-style="italic">(tickWaitingForEthFinality.next)</text></g><path d="M 375.2 80 L 375.2 202" fill="none" stroke="var(--edge)" stroke-width="1.5" marker-end="url(#arrow-edge)"/><g><rect x="123.19999999999999" y="128" width="250" height="26" rx="3" fill="var(--chip)" opacity="0.9"/><text x="248.2" y="141" text-anchor="middle" fill="var(--edge-text)" font-size="10">ethFinalityReached</text><text x="248.2" y="152" text-anchor="middle" fill="var(--edge-on)" font-size="8" font-style="italic">(checkWhetherWaitingForPreviousJobCompletion.next)</text></g><path d="M 421 80 L 421 108 L 778 108 L 778 332 L 745.8 332 L 745.8 362" fill="none" stroke="var(--edge)" stroke-width="1.5" marker-end="url(#arrow-edge)"/><g><rect x="530.8" y="208" width="245.2" height="26" rx="3" fill="var(--chip)" opacity="0.9"/><text x="653.4" y="221" text-anchor="middle" fill="var(--edge-text)" font-size="10">previousProofRequestsComplete</text><text x="653.4" y="232" text-anchor="middle" fill="var(--edge-on)" font-size="8" font-style="italic">(checkWhetherWaitingForCurrentJobCompletion.next)</text></g><path d="M 466.79999999999995 80 L 466.79999999999995 98 L 972.2 98 L 972.2 492 L 739.4666666666666 492 L 739.4666666666666 522" fill="none" stroke="var(--edge)" stroke-width="1.5" marker-end="url(#arrow-edge)"/><g><rect x="797" y="288" width="173.2" height="26" rx="3" fill="var(--chip)" opacity="0.9"/><text x="883.6" y="301" text-anchor="middle" fill="var(--edge-text)" font-size="10">proofRequestAlreadyComplete</text><text x="883.6" y="312" text-anchor="middle" fill="var(--edge-on)" font-size="8" font-style="italic">(checkWhetherFinishedWaiting.next)</text></g><path d="M 247.6 214.66666666666666 L 237.6 214.66666666666666 L 237.6 227.33333333333334 L 247.6 227.33333333333334" fill="none" stroke="var(--edge)" stroke-width="1.5" marker-end="url(#arrow-edge)"/><g><rect x="24.000000000000014" y="208" width="211.6" height="26" rx="3" fill="var(--chip)" opacity="0.9"/><text x="129.8" y="221" text-anchor="middle" fill="var(--edge-text)" font-size="10">previousProofRequestsPending</text><text x="129.8" y="232" text-anchor="middle" fill="var(--edge-on)" font-size="8" font-style="italic">(tickWaitingForPreviousJobCompletion.next)</text></g><path d="M 417.73333333333335 240 L 417.73333333333335 258 L 663.1333333333332 258 L 663.1333333333332 362" fill="none" stroke="var(--edge)" stroke-width="1.5" marker-end="url(#arrow-edge)"/><g><rect x="415.93333333333317" y="288" width="245.2" height="26" rx="3" fill="var(--chip)" opacity="0.9"/><text x="538.5333333333332" y="301" text-anchor="middle" fill="var(--edge-text)" font-size="10">previousProofRequestsCompleted</text><text x="538.5333333333332" y="312" text-anchor="middle" fill="var(--edge-on)" font-size="8" font-style="italic">(checkWhetherWaitingForCurrentJobCompletion.next)</text></g><path d="M 332.66666666666663 240 L 332.66666666666663 492 L 669.4666666666666 492 L 669.4666666666666 522" fill="none" stroke="var(--edge)" stroke-width="1.5" marker-end="url(#arrow-edge)"/><g><rect x="116.66666666666663" y="368" width="214" height="26" rx="3" fill="var(--chip)" opacity="0.9"/><text x="223.66666666666663" y="381" text-anchor="middle" fill="var(--edge-text)" font-size="10">proofRequestCompletedAfterPrevious</text><text x="223.66666666666663" y="392" text-anchor="middle" fill="var(--edge-on)" font-size="8" font-style="italic">(checkWhetherFinishedWaiting.next)</text></g><path d="M 580.4666666666666 374.6666666666667 L 570.4666666666666 374.6666666666667 L 570.4666666666666 387.3333333333333 L 580.4666666666666 387.3333333333333" fill="none" stroke="var(--edge)" stroke-width="1.5" marker-end="url(#arrow-edge)"/><g><rect x="361.66666666666663" y="368" width="206.79999999999998" height="26" rx="3" fill="var(--chip)" opacity="0.9"/><text x="465.0666666666666" y="381" text-anchor="middle" fill="var(--edge-text)" font-size="10">currentProofRequestPending</text><text x="465.0666666666666" y="392" text-anchor="middle" fill="var(--edge-on)" font-size="8" font-style="italic">(tickWaitingForCurrentJobCompletion.next)</text></g><path d="M 704.4666666666666 400 L 704.4666666666666 522" fill="none" stroke="var(--edge)" stroke-width="1.5" marker-end="url(#arrow-edge)"/><g><rect x="524.4666666666666" y="448" width="178" height="26" rx="3" fill="var(--chip)" opacity="0.9"/><text x="613.4666666666666" y="461" text-anchor="middle" fill="var(--edge-text)" font-size="10">currentProofRequestCompleted</text><text x="613.4666666666666" y="472" text-anchor="middle" fill="var(--edge-on)" font-size="8" font-style="italic">(checkWhetherFinishedWaiting.next)</text></g><g><rect x="329.4" y="42" width="183.2" height="38" rx="4" fill="var(--node-fill)" stroke="var(--node-stroke)" stroke-width="1"/><text x="421" y="65" text-anchor="middle" fill="var(--node-text)" font-size="12">WaitingForEthFinality</text></g><g><rect x="247.6" y="202" width="255.2" height="38" rx="4" fill="var(--node-fill)" stroke="var(--node-stroke)" stroke-width="1"/><text x="375.2" y="225" text-anchor="middle" fill="var(--node-text)" font-size="12">WaitingForPreviousJobCompletion</text></g><g><rect x="580.4666666666666" y="362" width="248" height="38" rx="4" fill="var(--node-fill)" stroke="var(--node-stroke)" stroke-width="1"/><text x="704.4666666666666" y="385" text-anchor="middle" fill="var(--node-text)" font-size="12">WaitingForCurrentJobCompletion</text></g><g><rect x="634.4666666666666" y="522" width="140" height="38" rx="4" fill="var(--node-fill)" stroke="var(--node-stroke)" stroke-width="1"/><rect x="637.4666666666666" y="525" width="134" height="32" rx="3" fill="none" stroke="var(--node-stroke)" stroke-width="1"/><text x="704.4666666666666" y="545" text-anchor="middle" fill="var(--node-text)" font-size="12">FinishedWaiting</text></g></g></svg>